grf
version=1
nRows=25
nColumns=28
inDegrees=no
endheader
time	ground_force_1_vx	ground_force_1_vy	ground_force_1_vz	ground_force_1_px	ground_force_1_py	ground_force_1_pz	ground_moment_1_mx	ground_moment_1_my	ground_moment_1_mz	ground_force_2_vx	ground_force_2_vy	ground_force_2_vz	ground_force_2_px	ground_force_2_py	ground_force_2_pz	ground_moment_2_mx	ground_moment_2_my	ground_moment_2_mz	ground_force_3_vx	ground_force_3_vy	ground_force_3_vz	ground_force_3_px	ground_force_3_py	ground_force_3_pz	ground_moment_3_mx	ground_moment_3_my	ground_moment_3_mz
      0.00000000	      0.48494226	      0.52973372	      2.29547191	    347.77751308	  -1261.71304738	      2.01313258	      0.03884723	      0.14047209	     76.97113887	      0.42735094	      0.27112108	      2.80429048	    213.79144970	  -1553.08944928	      0.29585542	     -0.01394102	     -0.18029833	    216.04670029	      1.62011483	     -0.57607731	      4.63366076	    461.72158647	   -341.19116420	      0.50169721	     -0.07369056	      0.54132545	    263.59309585
      0.01000000	      0.69252760	      0.27340843	      1.49502551	    253.80722195	  -1245.79773820	      2.03151387	      0.04969936	      0.17971353	     98.47333951	      0.38803471	      0.30480153	      2.49157903	    117.98526411	  -1622.64067242	      0.23163040	     -0.01202173	     -0.15547623	    186.30303276	      1.55705419	     -0.57724310	      4.23719149	    475.10625490	   -265.56134039	      0.35012258	     -0.10442286	      0.76708270	    373.52336288
      0.02000000	      0.57025269	      0.36394375	      1.59126069	    268.31239921	  -1284.89276314	      2.09554143	      0.03323590	      0.12018144	     65.85295690	      0.35597819	      0.15294292	      2.67963358	    165.65764108	  -1611.94120279	      0.24363566	     -0.01193854	     -0.15440034	    185.01381798	      1.72871616	     -0.68393376	      4.15727037	    451.64388055	   -231.21663985	      0.27303173	     -0.15676318	      1.15157088	    560.74609421
      0.03000000	      0.48507647	      0.24213951	      1.33649845	    248.05769779	  -1276.22571743	      2.08994662	      0.03493476	      0.12632455	     69.21905082	      0.57433012	      0.16577583	      2.17408544	    106.12103001	  -1530.96737705	      0.30736931	     -0.01651096	     -0.21353524	    255.87360002	      1.36421427	     -0.62408126	      4.63944120	    466.06398668	   -305.70622652	      0.43003787	     -0.06426416	      0.47207983	    229.87461999
      0.04000000	      0.59327424	      0.32894183	      2.56606917	    325.52159080	  -1238.15469568	      1.98137120	      0.04226560	      0.15283295	     83.74422812	      0.67463683	      0.17670886	      1.98526001	     24.35304094	  -1543.25063610	      0.29184220	     -0.01579974	     -0.20433711	    244.85172652	      1.58114415	     -0.65606574	      4.38998486	    465.27740682	   -277.39548677	      0.37167789	     -0.12461899	      0.91544198	    445.76545398
      0.05000000	      0.56558496	      0.40719884	      1.42577289	    260.97681048	  -1282.79475365	      2.09541483	      0.04576948	      0.16550304	     90.68675560	      0.38827185	      0.27152776	      2.10271166	     45.46449223	  -1561.13042735	      0.27828318	     -0.01398783	     -0.18090378	    216.77218744	      1.77819130	     -0.57707921	      3.76644297	    454.81034099	   -265.25993229	      0.34382964	     -0.12287150	      0.90260508	    439.51464783
      0.06000000	      0.40396713	      0.36106732	      1.27344141	    219.81979638	  -1279.61419990	      2.11038222	      0.05686937	      0.20564039	    112.67985876	      0.42240381	      0.22761243	      2.00289809	     90.49829509	  -1590.32599120	      0.25682442	     -0.01401272	     -0.18122558	    217.15779544	      1.61501947	     -0.61303207	      4.67279852	    450.65436701	   -278.13762316	      0.36911393	     -0.10646873	      0.78211152	    380.84149746
      0.07000000	      0.89582800	      0.84106670	      2.83563063	    392.66417246	  -1225.65683445	      1.92467587	      0.03879963	      0.14029995	     76.87681607	      0.54684520	      0.67075428	      1.52927116	    -88.98277239	  -1306.08095953	      0.48245507	     -0.04329782	     -0.55996798	    670.99474456	    -38.56752770	     43.10404090	   -194.65382714	    474.53400704	   -332.50343331	      0.48743760	      0.35459150	     -2.60480324	  -1268.38327266
      0.08000000	      0.55085928	      0.30351110	      0.28171413	  -1011.61603901	  -1635.98181103	      3.38225599	      0.16821413	      0.60826448	    333.29618455	      0.00893544	      0.02496115	      1.74321140	    -10.05671122	  -1612.55488747	      0.23178506	     -0.00299836	     -0.03877756	     46.46612183	   -225.08926277	    318.33203859	  -1260.73500613	    464.60484639	   -363.19283061	      0.54768677	     -0.70815348	      5.20204372	   2533.08393242
      0.09000000	      0.76516645	      0.26581418	      1.26768678	    180.57090387	  -1385.66943998	      2.32374156	     -0.00994999	     -0.03597929	    -19.71471295	      0.72490088	      0.01122884	      1.01654250	   -462.75004849	  -1392.62210222	      0.38611516	     -0.02206659	     -0.28538581	    341.97022557	     59.71838741	    130.61735116	  -1981.52616857	    437.17152112	   -351.17241346	      0.51533185	     -0.30256900	      2.22264975	   1082.29739545
      0.10000000	      0.40406432	      0.40796504	      1.66391175	    265.20633435	  -1263.17517118	      2.05747452	      0.07352090	      0.26585253	    145.67286967	      0.58344524	      0.23265705	      3.15337357	    162.05847912	  -1596.87081636	      0.25598017	     -0.01320889	     -0.17082970	    204.70068908	     79.42194826	    179.47036327	  -2093.94649218	    434.10270662	   -368.94827705	      0.55097916	      2.12993982	    -15.64638228	  -7618.85168194
      0.11000000	      0.35822353	      0.26665978	      0.97903012	     90.84806778	  -1299.87999808	      2.21245909	      0.08685722	      0.31407684	    172.09719880	      0.66372949	      0.29277425	      2.63664442	    152.12199143	  -1619.03096152	      0.23684559	     -0.01578112	     -0.20409627	    244.56313739	     89.36929298	    373.97965103	  -2188.83957558	    433.70825493	   -392.11328329	      0.59844148	      1.88201703	    -13.82515957	  -6732.02522651
      0.12000000	      0.27398901	      0.25599237	      1.28270149	    204.48878919	  -1295.51799786	      2.14714414	      0.05960525	      0.21553335	    118.10066818	      0.38003022	      0.35630074	      3.20374717	    250.89631203	  -1621.90737263	      0.24081882	     -0.01008579	     -0.13043896	    156.30153872	      4.37793855	    301.93416799	  -2251.21725112	    437.35103224	   -401.80973998	      0.61937289	      0.90124291	     -6.62046455	  -3223.76997712
      0.13000000	      0.51085836	      0.33786110	      1.23212123	    240.34199767	  -1326.56725276	      2.18571386	      0.05954933	      0.21533115	    117.98987748	      0.48471241	      0.20041996	      2.30582235	    112.84649270	  -1523.97658120	      0.31363735	     -0.01489008	     -0.19257247	    230.75447224	     14.39637239	    287.88541761	  -2382.83437874	    437.09241030	   -409.00742689	      0.63408205	      1.16186675	     -8.53498827	  -4156.02843781
      0.14000000	      0.39295205	      0.46550390	      1.24746696	    182.67746334	  -1280.82693198	      2.13134114	      0.07125611	      0.25766300	    141.18544962	      0.45053483	      0.28145536	      2.32835259	    105.37531331	  -1587.97397833	      0.25974724	     -0.01542150	     -0.19944525	    238.98993741	    -19.23750393	    237.72952730	  -2491.94120590	    438.45057017	   -413.28223251	      0.64324066	      0.30875204	     -2.26806995	  -1104.41431225
      0.15000000	      0.40447018	      0.16452063	      1.42674222	    241.12717315	  -1277.21546382	      2.09525073	      0.04450753	      0.16093979	     88.18634015	      0.38789008	      0.31057291	      1.57631681	   -131.13899100	  -1541.33620439	      0.28340630	     -0.01710490	     -0.22121666	    265.07803948	    -52.23529057	    142.68803965	  -2551.85697989	    440.18459918	   -415.67576352	      0.64864088	     -0.35708379	      2.62311145	   1277.29827346
      0.16000000	      0.42514082	      0.58927916	      1.49997430	    248.09082813	  -1272.93092605	      2.08391691	      0.08752814	      0.31650287	    173.42653117	      0.53846690	      0.34200991	      1.88566363	     50.86776157	  -1475.36202742	      0.35020850	     -0.01870832	     -0.24195359	    289.92655862	    -55.71957709	     87.93524976	  -2551.78839879	    440.86498133	   -420.58932240	      0.65892177	      0.01978111	     -0.14531058	    -70.75755382
      0.17000000	      0.54446242	      0.21219016	      1.44096546	    239.36223984	  -1241.76357354	      2.03144190	      0.06021859	      0.21775121	    119.31593995	      0.72228171	      0.35363774	      2.52792709	    129.30560254	  -1572.10927127	      0.27453105	     -0.01889627	     -0.24438423	    292.83912191	    -37.51683904	     40.32259888	  -2459.89403535	    441.13004505	   -428.03997117	      0.67429683	      0.60859112	     -4.47066590	  -2176.94670652
      0.18000000	      0.32317429	      0.00236022	      1.56724005	    229.22754537	  -1207.75811293	      1.97449701	      0.03579162	      0.12942296	     70.91681543	      0.59444397	      0.30056004	      2.20606957	     76.96607279	  -1545.80676273	      0.29310403	     -0.02077638	     -0.26869965	    321.97564767	    -55.12483963	     -3.17885448	  -2344.86127201	    443.06040870	   -435.89960400	      0.69097734	     -0.21976915	      1.61440815	    786.12013968
      0.19000000	      0.38527016	      0.33885247	      1.49560043	    229.58160894	  -1261.19771508	      2.07184542	      0.06268175	      0.22665800	    124.19637935	      0.37295338	      0.20086268	      2.05402485	     85.34598873	  -1595.68054411	      0.25202340	     -0.01296752	     -0.16770808	    200.96013051	    -69.42312693	    -49.96788058	  -2199.16377141	    445.09612849	   -443.86846381	      0.70791162	     -1.20982320	      8.88727283	   4327.56993480
      0.20000000	      0.56592180	      0.32623595	      1.74376680	    253.22916259	  -1231.51566748	      2.00574089	      0.05850037	      0.21153809	    115.91148538	      0.50601669	      0.11567174	      2.45312411	    128.19011989	  -1535.61496747	      0.30491481	     -0.01437261	     -0.18588004	    222.73510658	    -48.81726912	   -108.71892507	  -2050.19998796	    444.86311190	   -449.39155288	      0.71918892	     -1.68284266	     12.36203922	   6019.57319052
      0.21000000	      0.46096703	      0.32944630	      1.97626688	    269.56210596	  -1219.50079021	      1.97557056	      0.04956742	      0.17923642	     98.21190957	      0.41096214	      0.43426679	      2.54766727	    134.37214684	  -1529.77605692	      0.31018649	     -0.02194354	     -0.28379442	    340.06331567	    -33.01031233	   -166.91149662	  -1895.76444485	    444.23485758	   -452.40855036	      0.72520911	     -2.08336866	     15.30427396	   7452.26540554
      0.22000000	      0.58121060	      0.30888081	      1.71480557	    300.66593552	  -1205.57629949	      1.93446035	      0.05798266	      0.20966605	    114.88570410	      0.56870011	      0.41338784	      2.72512413	    134.55804179	  -1588.79681642	      0.26094365	     -0.01916901	     -0.24791157	    297.06584603	     -4.54236744	   -226.32753040	  -1702.51525257	    442.76949722	   -454.02884651	      0.72812696	     -2.18407674	     16.04406816	   7812.50089942
      0.23000000	      0.29324109	      0.15687262	      1.63604147	    278.80182974	  -1253.47705637	      2.03291386	      0.04078642	      0.14748422	     80.81341338	      0.74117616	      0.22886715	      2.49850732	    114.47806569	  -1691.19973163	      0.17418921	     -0.01445680	     -0.18696890	    224.03986263	     15.78828572	   -258.00327443	  -1485.65326966	    441.40438329	   -455.87657590	      0.73153990	     -2.19692110	     16.13842186	   7858.44550421
      0.24000000	      0.62481948	      0.47499864	      1.64815983	    275.59156283	  -1199.57916385	      1.93617060	      0.06075396	      0.21968712	    120.37671078	      0.56987781	      0.36775036	      2.66735141	    171.36153705	  -1600.77058577	      0.25332598	     -0.01742462	     -0.22535154	    270.03275864	     36.37876040	   -275.89216058	  -1237.13532171	    439.94549695	   -457.74951734	      0.73497840	     -1.70578440	     12.53056758	   6101.63641217
